<svg id="Vrstva_1" data-name="Vrstva 1" xmlns="http://www.w3.org/2000/svg" viewBox="0 0 640 512"><defs><style>.cls-1{fill:#c36f4b;}</style></defs><title>favicon</title><path class="cls-1" d="M528,448H112a16,16,0,0,0-16,16v32a16,16,0,0,0,16,16H528a16,16,0,0,0,16-16V464A16,16,0,0,0,528,448Zm64-320a48,48,0,0,0-48,48,47,47,0,0,0,4.4,19.8L476,239.2a32,32,0,0,1-44.2-11.6L350.3,85a48,48,0,1,0-60.6,0L208.2,227.6A32,32,0,0,1,164,239.2L91.7,195.8A48,48,0,1,0,48,224a49,49,0,0,0,7.7-.8L128,416H512l72.3-192.8a49,49,0,0,0,7.7.8,48,48,0,0,0,0-96Z"/></svg>